<svg width="225" height="42" viewBox="0 0 225 42" fill="none" xmlns="http://www.w3.org/2000/svg">
<path d="M75.2202 29.8469V10.6927H94.0858V13.6422H78.168V26.8628H94.1204V29.8469H75.2202Z" fill="#0C0C0C"/>
<path d="M93.3575 18.8818H81.1157V21.9701H93.3575V18.8818Z" fill="#0C0C0C"/>
<path d="M107.541 30.1245C100.293 30.1245 97.2069 27.5221 97.2069 21.4149V10.6927H100.259V21.4149C100.259 25.6483 102.27 27.2098 107.645 27.2098C113.021 27.2098 115.032 25.6483 115.032 21.4149V10.6927H117.91V21.4149C117.91 27.5221 114.824 30.1245 107.541 30.1245Z" fill="#0C0C0C"/>
<path d="M121.482 29.8469V10.6927H124.43V26.8628H139.481V29.8469H121.482Z" fill="#0C0C0C"/>
<path d="M160.531 18.6736H148.289V21.7619H160.531V18.6736Z" fill="#0C0C0C"/>
<path d="M142.394 29.8469V10.6927H161.26V13.6422H145.307V26.8628H161.26V29.8469H142.394Z" fill="#0C0C0C"/>
<path d="M181.443 29.8469L177.802 24.3991H170.588V21.519H178.53C181.096 21.519 182.518 20.0269 182.518 17.355C182.518 14.6832 181.2 13.6769 178.53 13.6769H167.606V29.8816H164.658V10.7274H178.495C182.726 10.7274 185.396 13.3646 185.396 17.6326C185.396 21.9007 184.044 22.8376 181.686 23.8439L181.235 24.0521L185.05 29.8816H181.408L181.443 29.8469Z" fill="#0C0C0C"/>
<path d="M214.908 29.8469L205.822 14.5791L196.806 29.8469H193.442L205.094 10.4151H206.793L218.48 29.8469H214.908Z" fill="#0C0C0C"/>
<path d="M224.376 10.6927H221.428V29.8469H224.376V10.6927Z" fill="#0C0C0C"/>
<path d="M47.0891 21.7863C44.5229 18.6286 40.8469 17.7958 36.9975 18.1081C34.9861 18.2816 33.0094 18.1081 31.1367 17.4141C26.6284 15.7485 26.2469 11.5152 29.0212 8.63509C30.4084 7.1777 32.3158 7.3165 34.1538 7.8023C35.645 8.2187 36.9975 8.91269 38.2459 9.88428C40.188 11.4458 42.4421 12.0704 44.731 10.8906C47.0545 9.71078 48.407 7.5941 47.8174 4.64463C47.1932 1.41756 43.968 -0.421525 40.8816 0.307169C39.4944 0.619466 38.4193 1.48696 37.5523 2.56265C36.5466 3.84654 35.4022 4.99162 33.8763 5.61621C32.1077 6.34491 30.3737 6.13672 28.6744 5.37332C27.3913 4.78343 26.4896 3.77713 25.4493 2.87494C24.2008 1.76455 22.9177 0.723565 21.2184 0.307169C18.8255 -0.317426 16.6061 0.0295712 14.4213 1.17466C11.2308 2.84024 9.60083 6.93481 10.3291 10.266C10.9186 12.9379 12.4445 14.881 14.9068 16.1649C16.4327 16.9977 18.0626 17.1712 19.7272 17.1365C21.7733 17.1365 23.7847 17.3794 25.588 18.4551C27.8768 19.7737 28.7785 21.7863 28.5704 24.3193C28.5704 24.6663 28.501 25.0133 28.4317 25.3603C28.3277 25.9849 28.0849 26.5401 27.7381 27.0259C26.9405 28.1363 25.9001 29.0732 24.617 29.8019C23.0217 30.7041 21.2184 30.8776 19.3804 30.7388C17.6811 30.6 16.0512 30.1489 14.5253 29.3855C13.589 28.8997 12.6873 28.3445 11.7509 27.7893C9.63551 26.4707 7.34668 26.2278 5.02317 27.0606C4.22554 27.3729 3.56664 27.7893 2.76901 28.3792C-0.768273 31.2246 -0.83763 36.603 2.11011 39.5872C4.57234 42.0856 8.24834 42.7102 11.3001 41.1487C12.8954 40.3506 13.8664 39.0667 14.8027 37.644C17.3343 33.7577 21.2878 31.4675 26.2816 32.5779C26.663 32.6473 27.0445 32.7514 27.426 32.8902C28.7438 33.3066 29.8535 34.1394 30.7899 35.1456C32.0383 36.4989 33.5989 37.5399 35.4369 38.1298C35.7837 38.2339 36.1652 38.338 36.512 38.4074C39.3903 38.9279 42.026 38.4074 44.4882 36.8112C47.0891 35.1109 48.7537 32.6473 49.1699 29.6978C49.5861 26.8177 48.9965 24.1458 47.0891 21.7863ZM39.5291 3.11784C41.055 1.62576 43.4825 1.66046 45.0084 3.11784C46.4996 4.60993 46.4996 7.03891 45.0084 8.531C43.4825 10.0231 41.055 9.98838 39.5291 8.531C38.0032 7.07361 38.0379 4.60993 39.5291 3.11784ZM23.2298 12.7991C20.8022 15.1586 16.8835 15.1586 14.4906 12.7643C12.0977 10.3701 12.0977 6.48371 14.5253 4.12413C16.9528 1.76455 20.8716 1.76456 23.2645 4.15883C25.6573 6.55311 25.6573 10.4395 23.2298 12.7991ZM11.2654 38.4421C8.97661 40.3506 5.54336 40.073 3.60132 37.7828C1.65928 35.4926 1.97139 32.0921 4.26022 30.1836C6.54905 28.2751 9.9823 28.5527 11.9243 30.8429C13.8664 33.1331 13.5543 36.5336 11.2654 38.4421ZM43.7946 33.8965C40.6735 36.6377 35.8877 36.3601 33.1134 33.2372C30.3391 30.1489 30.6512 25.395 33.7723 22.6538C36.8934 19.9125 41.6792 20.1901 44.4535 23.3131C47.2279 26.4013 46.9157 31.1552 43.7946 33.8965Z" fill="#2274BC"/>
</svg>
